<svg xmlns="http://www.w3.org/2000/svg" viewBox="0 0 24 24" width="24" height="24" color="currentColor" fill="none">
    <path d="M13.921 21.75C16.2107 21.75 18.0151 21.7521 19.3478 21.5537C20.6865 21.3543 21.7726 20.9217 22.3722 19.8633C22.9712 18.8058 22.7862 17.6499 22.2726 16.3945C21.7611 15.1444 20.8363 13.5908 19.6651 11.6162L17.7403 8.37109C16.6157 6.47504 15.7304 4.9772 14.9073 3.96484C14.079 2.94615 13.1807 2.25 11.9962 2.25C10.8118 2.25004 9.91333 2.94615 9.08505 3.96484C8.26196 4.97721 7.37666 6.47505 6.25204 8.37109L4.32723 11.6162C3.15604 13.5908 2.23132 15.1444 1.71981 16.3945C1.20621 17.6498 1.02126 18.8058 1.6202 19.8633C2.21978 20.9217 3.30591 21.3543 4.64462 21.5537C5.9773 21.7522 7.78168 21.75 10.0714 21.75H13.921ZM10.0714 20.25C7.73102 20.25 6.06205 20.2483 4.8663 20.0703C3.6768 19.8932 3.17842 19.5716 2.92489 19.124C2.67098 18.6755 2.65137 18.0802 3.10848 16.9629C3.56787 15.8401 4.42019 14.3991 5.61727 12.3809L7.54208 9.13574C8.69235 7.19645 9.51302 5.8165 10.2491 4.91113C10.9798 4.01248 11.494 3.75004 11.9962 3.75C12.4985 3.75 13.0125 4.01245 13.7433 4.91113C14.4794 5.81649 15.3 7.19643 16.4503 9.13574L18.3751 12.3809C19.5722 14.3991 20.4245 15.8401 20.8839 16.9629C21.341 18.0802 21.3214 18.6755 21.0675 19.124C20.8139 19.5715 20.3156 19.8932 19.1261 20.0703C17.9303 20.2483 16.2613 20.25 13.921 20.25H10.0714ZM11.9962 9.89648C12.4933 9.89648 12.8966 9.49315 12.8966 8.99609V8.98633C12.8966 8.48927 12.4933 8.08594 11.9962 8.08594C11.4991 8.08594 11.0958 8.48927 11.0958 8.98633V8.99609C11.0958 9.49315 11.4991 9.89648 11.9962 9.89648ZM11.9962 17.75C12.4104 17.75 12.7462 17.4142 12.7462 17V12.5C12.7462 12.0858 12.4104 11.75 11.9962 11.75C11.582 11.75 11.2462 12.0858 11.2462 12.5V17C11.2462 17.4142 11.582 17.75 11.9962 17.75Z" fill="currentColor" />
</svg>